<?xml version="1.0"?>
<svg xmlns="http://www.w3.org/2000/svg" xmlns:xlink="http://www.w3.org/1999/xlink" version="1.1" xml:space="preserve">
  <defs>
    <symbol id="email" width="100%" height="100%" viewBox="0 0 56 56" fill="none">
      <path d="M4.66675 28.0002C4.66675 19.2006 4.66675 14.8008 7.40042 12.0672C10.1341 9.3335 14.5339 9.3335 23.3334 9.3335H32.6667C41.4663 9.3335 45.8661 9.3335 48.5997 12.0672C51.3334 14.8008 51.3334 19.2006 51.3334 28.0002C51.3334 36.7997 51.3334 41.1995 48.5997 43.9332C45.8661 46.6668 41.4663 46.6668 32.6667 46.6668H23.3334C14.5339 46.6668 10.1341 46.6668 7.40042 43.9332C4.66675 41.1995 4.66675 36.7997 4.66675 28.0002Z" stroke="currentColor" stroke-width="2" />
      <path d="M14 18.6665L19.0374 22.8644C23.3229 26.4356 25.4657 28.2212 28 28.2212C30.5343 28.2212 32.6771 26.4356 36.9626 22.8644L42 18.6665" stroke="currentColor" stroke-width="2" stroke-linecap="round" />

    </symbol>
    <symbol id="phone" width="100%" height="100%" viewBox="0 0 56 56" fill="none">
      <path d="M31.5001 4.66699C31.5001 4.66699 36.9448 5.16197 43.8745 12.0916C50.8041 19.0213 51.2991 24.466 51.2991 24.466" stroke="currentColor" stroke-width="2" stroke-linecap="round" />
      <path d="M33.1498 12.9165C33.1498 12.9165 35.4597 13.5765 38.9245 17.0413C42.3893 20.5061 43.0493 22.816 43.0493 22.816" stroke="currentColor" stroke-width="2" stroke-linecap="round" />
      <path d="M35.235 35.0635L34.5099 34.3748L35.235 35.0635ZM36.2977 33.9446L37.0228 34.6333L36.2977 33.9446ZM41.9366 33.1621L41.4377 34.0288L41.9366 33.1621ZM46.3944 35.728L45.8956 36.5946L46.3944 35.728ZM47.6506 43.7697L48.3756 44.4584L47.6506 43.7697ZM44.336 47.2593L43.6109 46.5707L44.336 47.2593ZM41.2446 48.9139L41.3429 49.9091L41.2446 48.9139ZM18.2358 38.4421L18.9609 37.7534L18.2358 38.4421ZM7.00674 16.2539L6.00817 16.3074L6.00818 16.3074L7.00674 16.2539ZM22.1142 19.8406L22.8393 20.5293L22.1142 19.8406ZM22.4799 13.2839L23.2964 12.7066L22.4799 13.2839ZM19.5376 9.12244L18.7211 9.69975V9.69975L19.5376 9.12244ZM12.2767 8.42016L13.0018 9.10885L12.2767 8.42016ZM8.61431 12.276L7.88926 11.5873L7.88926 11.5873L8.61431 12.276ZM25.8139 30.4638L26.539 29.7751L25.8139 30.4638ZM35.9601 35.7522L37.0228 34.6333L35.5727 33.256L34.5099 34.3748L35.9601 35.7522ZM41.4377 34.0288L45.8956 36.5946L46.8933 34.8613L42.4354 32.2954L41.4377 34.0288ZM46.9255 43.081L43.6109 46.5707L45.061 47.948L48.3756 44.4584L46.9255 43.081ZM41.1464 47.9187C37.6036 48.2684 28.6266 47.9296 18.9609 37.7534L17.5108 39.1308C27.6634 49.8196 37.2816 50.3099 41.3429 49.9091L41.1464 47.9187ZM18.9609 37.7534C9.78809 28.0962 8.2035 19.8929 8.0053 16.2003L6.00818 16.3074C6.23066 20.4526 7.99525 29.1127 17.5108 39.1308L18.9609 37.7534ZM22.17 21.2339L22.8393 20.5293L21.3892 19.1519L20.7199 19.8565L22.17 21.2339ZM23.2964 12.7066L20.3541 8.54512L18.7211 9.69975L21.6634 13.8612L23.2964 12.7066ZM11.5517 7.73148L7.88926 11.5873L9.33937 12.9647L13.0018 9.10885L11.5517 7.73148ZM21.445 20.5452C20.7199 19.8565 20.719 19.8575 20.7181 19.8585C20.7177 19.8588 20.7168 19.8598 20.7161 19.8605C20.7148 19.8619 20.7135 19.8633 20.7121 19.8648C20.7094 19.8678 20.7065 19.8709 20.7034 19.8743C20.6973 19.881 20.6906 19.8885 20.6834 19.8968C20.669 19.9134 20.6524 19.9332 20.6341 19.9562C20.5976 20.0024 20.5543 20.0617 20.5076 20.1346C20.414 20.2809 20.3076 20.4811 20.2159 20.7389C20.0303 21.2604 19.9163 21.9849 20.0544 22.9273C20.3274 24.7906 21.5749 27.4529 25.0889 31.1525L26.539 29.7751C23.158 26.2155 22.221 23.9185 22.0333 22.6373C21.941 22.0074 22.0276 21.6133 22.1001 21.4094C22.1375 21.3044 22.1746 21.2402 22.1922 21.2126C22.2011 21.1987 22.2053 21.1938 22.2024 21.1974C22.201 21.1992 22.1978 21.2032 22.1925 21.2093C22.1898 21.2123 22.1867 21.2159 22.1829 21.22C22.1811 21.222 22.1791 21.2242 22.1769 21.2265C22.1758 21.2277 22.1747 21.2289 22.1736 21.2301C22.173 21.2307 22.1721 21.2317 22.1718 21.232C22.1709 21.2329 22.17 21.2339 21.445 20.5452ZM25.0889 31.1525C28.5969 34.8457 31.1398 36.1789 32.9498 36.4729C33.8702 36.6223 34.5838 36.4992 35.0995 36.2958C35.3532 36.1958 35.5493 36.0801 35.6915 35.9792C35.7625 35.9289 35.8199 35.8823 35.8644 35.8433C35.8866 35.8238 35.9057 35.8062 35.9216 35.7908C35.9295 35.7832 35.9367 35.7761 35.9431 35.7696C35.9463 35.7664 35.9493 35.7633 35.9522 35.7604C35.9536 35.7589 35.9549 35.7575 35.9563 35.7561C35.9569 35.7555 35.9579 35.7545 35.9582 35.7541C35.9591 35.7531 35.9601 35.7522 35.235 35.0635C34.5099 34.3748 34.5109 34.3738 34.5118 34.3729C34.512 34.3726 34.5129 34.3716 34.5135 34.371C34.5147 34.3698 34.5158 34.3687 34.5169 34.3675C34.5191 34.3653 34.5212 34.3631 34.5232 34.3611C34.5271 34.3572 34.5305 34.3538 34.5335 34.3509C34.5394 34.3452 34.5434 34.3416 34.5455 34.3398C34.5496 34.3362 34.546 34.3397 34.5345 34.3479C34.5116 34.3641 34.4565 34.3995 34.3657 34.4353C34.1922 34.5037 33.8434 34.5918 33.2704 34.4987C32.0937 34.3076 29.926 33.341 26.539 29.7751L25.0889 31.1525ZM20.3541 8.54512C18.2397 5.55457 14.0611 5.08953 11.5517 7.73148L13.0018 9.10885C14.5734 7.45423 17.275 7.65443 18.7211 9.69975L20.3541 8.54512ZM8.0053 16.2003C7.94149 15.0114 8.4639 13.8864 9.33937 12.9647L7.88926 11.5873C6.74117 12.796 5.90755 14.4327 6.00817 16.3074L8.0053 16.2003ZM43.6109 46.5707C42.8776 47.3426 42.0401 47.8305 41.1464 47.9187L41.3429 49.9091C42.8543 49.7599 44.1087 48.9507 45.061 47.948L43.6109 46.5707ZM22.8393 20.5293C24.8359 18.4272 24.9938 15.1073 23.2964 12.7066L21.6634 13.8612C22.8427 15.5292 22.6898 17.7826 21.3892 19.1519L22.8393 20.5293ZM45.8956 36.5946C48.2169 37.9308 48.7015 41.2113 46.9255 43.081L48.3756 44.4584C51.0745 41.617 50.2974 36.8206 46.8933 34.8613L45.8956 36.5946ZM37.0228 34.6333C38.1663 33.4294 39.9486 33.1716 41.4377 34.0288L42.4354 32.2954C40.1652 30.9887 37.3673 31.3665 35.5727 33.256L37.0228 34.6333Z" fill="currentColor" />

    </symbol>
    <symbol id="menu" width="100%" height="100%" viewBox="0 0 24 24" fill="none">
      <path d="M20 7L4 7" stroke="currentColor" stroke-width="2" stroke-linecap="round" />
      <path d="M20 12L4 12" stroke="currentColor" stroke-width="2" stroke-linecap="round" />
      <path d="M20 17L4 17" stroke="currentColor" stroke-width="2" stroke-linecap="round" />
    </symbol>
    <symbol id="arrow-right" width="100%" height="100%" viewBox="0 0 20 20" fill="none">
      <path fill-rule="evenodd" clip-rule="evenodd" d="M11.2248 4.55806C11.4688 4.31398 11.8646 4.31398 12.1086 4.55806L17.1086 9.55806C17.3527 9.80214 17.3527 10.1979 17.1086 10.4419L12.1086 15.4419C11.8646 15.686 11.4688 15.686 11.2248 15.4419C10.9807 15.1979 10.9807 14.8021 11.2248 14.5581L15.1578 10.625H3.33337C2.9882 10.625 2.70837 10.3452 2.70837 10C2.70837 9.65482 2.9882 9.375 3.33337 9.375H15.1578L11.2248 5.44194C10.9807 5.19786 10.9807 4.80214 11.2248 4.55806Z" fill="currentColor" />

    </symbol>
    <symbol id="arrow-right-alt" width="100%" height="100%" viewBox="0 0 32 19" fill="none">
      <path fill-rule="evenodd" clip-rule="evenodd" d="M26.4833 9.93584H0V8.61106H26.4626C25.5887 8.19476 24.8301 7.67809 24.1629 7.05973C22.3987 5.42479 21.3458 3.14178 20.4255 0.361747L21.564 0C22.4707 2.73915 23.449 4.784 24.9854 6.2079C26.3522 7.47476 28.2191 8.30143 31.0311 8.61106H32V8.69484V9.86484V9.93584H31.1493C28.2707 10.2349 26.3707 11.0641 24.9849 12.3459C23.4489 13.7666 22.4707 15.8081 21.564 18.5471L20.4255 18.1853C21.3459 15.4051 22.3989 13.1251 24.1633 11.4933C24.8357 10.8714 25.6009 10.3528 26.4833 9.93584Z" fill="currentColor" />

    </symbol>
    <symbol id="arrow-left" width="100%" height="100%" viewBox="0 0 15 10" fill="none">
      <path d="M2 5L1.29289 4.29289L0.585786 5L1.29289 5.70711L2 5ZM14 6C14.5523 6 15 5.55228 15 5C15 4.44772 14.5523 4 14 4V6ZM5.29289 0.292893L1.29289 4.29289L2.70711 5.70711L6.70711 1.70711L5.29289 0.292893ZM1.29289 5.70711L5.29289 9.70711L6.70711 8.29289L2.70711 4.29289L1.29289 5.70711ZM2 6H14V4H2V6Z" fill="currentColor" />
    </symbol>
    <symbol id="arrow-left-alt" width="100%" height="100%" viewBox="0 0 32 19" fill="none">
      <path fill-rule="evenodd" clip-rule="evenodd" d="M5.51674 9.93584H32V8.61106H5.53737C6.41131 8.19476 7.16994 7.67809 7.83714 7.05973C9.60126 5.42479 10.6542 3.14178 11.5745 0.361747L10.436 0C9.52926 2.73915 8.55097 4.784 7.01463 6.2079C5.64777 7.47476 3.78091 8.30143 0.968855 8.61106H0V8.69484V9.86484V9.93584H0.850685C3.72931 10.2349 5.62931 11.0641 7.01514 12.3459C8.55114 13.7666 9.52926 15.8081 10.436 18.5471L11.5745 18.1853C10.6541 15.4051 9.60108 13.1251 7.83674 11.4933C7.16428 10.8714 6.39908 10.3528 5.51674 9.93584Z" fill="currentColor" />

    </symbol>
    <symbol id="gal-ochka" width="100%" height="100%" viewBox="0 0 24 26" fill="none">
      <path d="M5 12.9232L10 18.3078L20 7.53857" stroke="currentColor" stroke-width="2" stroke-linecap="round" stroke-linejoin="round" />
    </symbol>
    <symbol id="gal-ochka-alt" width="100%" height="100%" viewBox="0 0 15 16" fill="none">
      <path d="M3.38898 15.88C3.38898 15.7 3.36898 15.62 3.28898 15.62L2.82898 15.84C2.82898 15.74 2.76898 15.68 2.66898 15.64L2.50898 15.62C2.36898 15.62 2.30898 15.64 2.10898 15.76C2.04898 15.64 1.96898 15.5 1.90898 15.38C1.38898 14.38 0.848984 12.88 0.608984 12.22C0.488984 11.88 0.368984 11.18 0.228984 10.12C0.388984 10.22 0.508984 10.26 0.568984 10.26C0.648984 10.26 0.748985 10.12 0.828984 9.84C0.868984 9.9 0.948984 9.92 1.04898 9.92C1.10898 9.92 1.18898 9.9 1.22898 9.84L1.54898 9.36L1.90898 9.48H1.92898C1.96898 9.48 2.02898 9.42 2.12898 9.36C2.22898 9.3 2.30898 9.26 2.36898 9.26L2.42898 9.28C2.74898 9.44 2.96898 9.72 3.06898 10.16C3.30898 11.18 3.52898 11.68 3.78898 11.68C4.00898 11.68 4.30898 11.42 4.62898 10.92C4.94898 10.42 5.26898 9.74 5.62898 8.92C5.64898 9.08 5.66898 9.16 5.70898 9.16C5.82898 9.16 6.12898 8.46 6.86898 7.28C7.96898 5.5 10.689 2.08 11.389 1.6C11.909 1.24 12.309 0.899999 12.589 0.599999C12.549 0.799999 12.509 0.94 12.509 0.999999C12.509 1.06 12.549 1.08 12.589 1.08L13.149 0.799999V0.879999C13.149 0.979999 13.169 1.04 13.229 1.04C13.309 1.04 13.629 0.719999 13.669 0.599999L13.629 0.879999L14.309 0.48L14.149 0.84C14.349 0.699999 14.509 0.619999 14.609 0.619999C14.709 0.619999 14.769 0.779999 14.769 0.879999C14.769 1.04 14.629 1.26 14.409 1.54C14.169 1.86 13.569 2.48 11.769 4.54C10.989 5.42 7.52898 10.12 6.86898 11.24L5.62898 13.34C5.08898 14.24 4.74898 14.82 4.56898 15.04C4.38898 15.26 4.16898 15.48 3.90898 15.68L3.72898 15.58L3.56898 15.68L3.38898 15.88Z" fill="currentColor" />

    </symbol>
    <symbol id="to-right" width="100%" height="100%" viewBox="0 0 24 24" fill="none">
      <path d="M14.2322 12L8.11612 5.88388C7.62796 5.39573 7.62796 4.60427 8.11612 4.11612C8.60427 3.62796 9.39573 3.62796 9.88388 4.11612L16.8839 11.1161C17.372 11.6043 17.372 12.3957 16.8839 12.8839L9.88388 19.8839C9.39573 20.372 8.60427 20.372 8.11612 19.8839C7.62796 19.3957 7.62796 18.6043 8.11612 18.1161L14.2322 12Z" fill="currentColor" />

    </symbol>
    <symbol id="to-left" width="100%" height="100%" viewBox="0 0 24 24" fill="none">
      <path d="M9.76777 12L15.8839 5.88388C16.372 5.39573 16.372 4.60427 15.8839 4.11612C15.3957 3.62796 14.6043 3.62796 14.1161 4.11612L7.11612 11.1161C6.62796 11.6043 6.62796 12.3957 7.11612 12.8839L14.1161 19.8839C14.6043 20.372 15.3957 20.372 15.8839 19.8839C16.372 19.3957 16.372 18.6043 15.8839 18.1161L9.76777 12Z" fill="currentColor" />

    </symbol>
    <symbol id="play" width="100%" height="100%" viewBox="0 0 24 24" fill="none">
      <path d="M19.5761 9.35258C21.4746 10.5065 21.4746 13.4935 19.5761 14.6474L8.11276 21.6145C6.26758 22.736 4 21.2763 4 18.9671L4 5.0329C4 2.72368 6.26758 1.26402 8.11276 2.38548L19.5761 9.35258Z" fill="currentColor" />
    </symbol>
    <symbol id="cross" width="100%" height="100%" viewBox="0 0 24 24" fill="none">
      <path d="M18.9999 5.00006L5 19M4.99994 5L18.9999 18.9999" stroke="currentColor" stroke-width="2.4" stroke-linecap="round" />

    </symbol>
    <symbol id="file-download" width="100%" height="100%" viewBox="0 0 25 24" fill="none">
      <path d="M15.6527 4.05365L14.9837 4.79694V4.79694L15.6527 4.05365ZM19.6115 7.61654L18.9425 8.35984L19.6115 7.61654ZM21.9138 10.1541L21.0003 10.5609V10.5609L21.9138 10.1541ZM3.43134 20.8284L4.13845 20.1213L4.13845 20.1213L3.43134 20.8284ZM21.0882 20.8284L20.3811 20.1213L20.3811 20.1213L21.0882 20.8284ZM14.2598 21H10.2598V23H14.2598V21ZM3.25977 14V10H1.25977V14H3.25977ZM21.2598 13.5629V14H23.2598V13.5629H21.2598ZM14.9837 4.79694L18.9425 8.35984L20.2804 6.87325L16.3217 3.31035L14.9837 4.79694ZM23.2598 13.5629C23.2598 11.8966 23.28 10.7637 22.8273 9.74726L21.0003 10.5609C21.2396 11.0983 21.2598 11.72 21.2598 13.5629H23.2598ZM18.9425 8.35984C20.3124 9.5927 20.761 10.0236 21.0003 10.5609L22.8273 9.74726C22.3746 8.73081 21.519 7.98793 20.2804 6.87325L18.9425 8.35984ZM10.2896 3C11.8903 3 12.432 3.01544 12.9107 3.19914L13.6273 1.3319C12.7221 0.984562 11.7388 1 10.2896 1V3ZM16.3217 3.31035C15.2496 2.34552 14.5323 1.67918 13.6273 1.3319L12.9107 3.19914C13.3896 3.38289 13.8001 3.73163 14.9837 4.79694L16.3217 3.31035ZM10.2598 21C8.34588 21 7.01106 20.9979 6.00393 20.8625C5.02556 20.7309 4.50746 20.4903 4.13845 20.1213L2.72423 21.5355C3.52679 22.3381 4.53729 22.6833 5.73743 22.8446C6.90881 23.0021 8.40242 23 10.2598 23V21ZM1.25977 14C1.25977 15.8573 1.25764 17.351 1.41513 18.5223C1.57648 19.7225 1.92168 20.733 2.72423 21.5355L4.13845 20.1213C3.76943 19.7523 3.52883 19.2342 3.39729 18.2558C3.26189 17.2487 3.25977 15.9139 3.25977 14H1.25977ZM14.2598 23C16.1171 23 17.6107 23.0021 18.7821 22.8446C19.9822 22.6833 20.9927 22.3381 21.7953 21.5355L20.3811 20.1213C20.0121 20.4903 19.494 20.7309 18.5156 20.8625C17.5085 20.9979 16.1737 21 14.2598 21V23ZM21.2598 14C21.2598 15.9139 21.2576 17.2487 21.1222 18.2558C20.9907 19.2342 20.7501 19.7523 20.3811 20.1213L21.7953 21.5355C22.5979 20.733 22.943 19.7225 23.1044 18.5223C23.2619 17.351 23.2598 15.8573 23.2598 14H21.2598ZM3.25977 10C3.25977 8.08611 3.26189 6.75129 3.39729 5.74416C3.52883 4.76579 3.76943 4.2477 4.13845 3.87868L2.72423 2.46447C1.92168 3.26702 1.57648 4.27752 1.41513 5.47766C1.25764 6.64904 1.25977 8.14265 1.25977 10H3.25977ZM10.2896 1C8.42218 1 6.92146 0.997894 5.74547 1.15528C4.54147 1.31642 3.52757 1.66113 2.72423 2.46447L4.13845 3.87868C4.50668 3.51044 5.02634 3.26936 6.01078 3.13761C7.02323 3.00211 8.36583 3 10.2896 3V1Z" fill="currentColor" />
      <path d="M13.2598 2.5V5C13.2598 7.35702 13.2598 8.53553 13.992 9.26777C14.7242 10 15.9027 10 18.2598 10H22.2598" stroke="currentColor" stroke-width="2" />
      <path d="M8.75977 13.5L8.75977 18.5M8.75977 18.5L10.7598 16.625M8.75977 18.5L6.75977 16.625" stroke="currentColor" stroke-width="2" stroke-linecap="round" stroke-linejoin="round" />

    </symbol>
    <symbol id="telegram" width="100%" height="100%" viewBox="0 0 17 14" fill="none">
      <path fill-rule="evenodd" clip-rule="evenodd" d="M1.42875 6.03809C5.72284 4.06858 8.58147 2.7599 10.0169 2.12499C14.1024 0.323932 14.9613 0.0129573 15.5133 0C15.636 0 15.9059 0.0259147 16.09 0.181402C16.2372 0.310975 16.274 0.479419 16.2986 0.608992C16.3231 0.738565 16.3476 1.01067 16.3231 1.21798C16.1023 3.67986 15.1453 9.65316 14.6545 12.4001C14.446 13.5663 14.0411 13.955 13.6485 13.9938C12.7897 14.0716 12.1394 13.3978 11.3174 12.8277C10.0169 11.9336 9.29306 11.3765 8.02937 10.4954C6.56938 9.48472 7.51408 8.92756 8.34836 8.02055C8.5692 7.78732 12.3357 4.15928 12.4093 3.83535C12.4216 3.79648 12.4216 3.64099 12.3357 3.56325C12.2498 3.4855 12.1272 3.51142 12.029 3.53733C11.894 3.56325 9.83289 5.01446 5.82099 7.87802C5.23208 8.30561 4.70452 8.51292 4.22604 8.49997C3.69848 8.48701 2.69244 8.18899 1.93177 7.92984C1.01161 7.61887 0.275483 7.45043 0.336827 6.90622C0.373633 6.62116 0.741697 6.3361 1.42875 6.03809Z" fill="currentColor" />

    </symbol>
    <symbol id="whatsapp" width="100%" height="100%" viewBox="0 0 17 16" fill="none">
      <path fill-rule="evenodd" clip-rule="evenodd" d="M14.002 2.32523C12.4979 0.826592 10.4977 0.000915384 8.36663 0C3.97559 0 0.401776 3.5565 0.400013 7.92791C0.399476 9.32525 0.76624 10.6892 1.46343 11.8916L0.333252 16L4.55643 14.8975C5.72003 15.5291 7.03011 15.8621 8.36341 15.8625H8.36671C12.7573 15.8625 16.3314 12.3056 16.3333 7.93409C16.334 5.81574 15.5061 3.82379 14.002 2.32523ZM8.36671 14.5236H8.36403C7.1759 14.5231 6.01053 14.2054 4.99394 13.605L4.75212 13.4623L2.24602 14.1164L2.91493 11.6847L2.75749 11.4353C2.09471 10.3862 1.74458 9.17352 1.74512 7.9283C1.74657 4.29498 4.71694 1.33905 8.36939 1.33905C10.1379 1.33966 11.8005 2.02597 13.0506 3.27166C14.3008 4.51727 14.9888 6.17289 14.9881 7.93371C14.9866 11.5673 12.0163 14.5236 8.36671 14.5236ZM11.9987 9.58804C11.7996 9.48895 10.8211 9.00967 10.6386 8.94353C10.4561 8.87755 10.3234 8.84444 10.1907 9.04278C10.058 9.24111 9.67648 9.68728 9.56036 9.81955C9.44423 9.95167 9.32811 9.96831 9.12913 9.86906C8.93 9.76997 8.28868 9.56073 7.52833 8.88579C6.9366 8.36051 6.53711 7.71181 6.42099 7.5134C6.30486 7.31506 6.40857 7.20789 6.50829 7.1091C6.59781 7.02031 6.70735 6.87766 6.80691 6.76202C6.90648 6.64638 6.93959 6.56369 7.00597 6.43149C7.07235 6.29929 7.03916 6.18357 6.98933 6.08448C6.93959 5.98524 6.54148 5.01013 6.37561 4.61346C6.21403 4.22724 6.04993 4.2795 5.92775 4.27339C5.81178 4.26767 5.67895 4.26638 5.5462 4.26638C5.41352 4.26638 5.1979 4.31596 5.0154 4.51429C4.83298 4.71263 4.31875 5.19191 4.31875 6.16702C4.31875 7.14213 5.03196 8.08406 5.13153 8.21634C5.23102 8.34853 6.53519 10.3495 8.53196 11.2077C9.0068 11.4118 9.37763 11.5336 9.66674 11.625C10.1437 11.7758 10.5776 11.7544 10.9205 11.7035C11.303 11.6466 12.0982 11.2242 12.2641 10.7615C12.4299 10.2987 12.4299 9.90202 12.3802 9.8194C12.3304 9.73687 12.1978 9.68728 11.9987 9.58804Z" fill="currentColor" />

    </symbol>
    <symbol id="vk" width="100%" height="100%" viewBox="0 0 20 12" fill="none">
      <path d="M10.4487 11.6206C3.96119 11.6206 0.260872 7.27145 0.106689 0.0344238H3.35638C3.46312 5.34622 5.85882 7.59619 7.75644 8.0601V0.0344238H10.8165V4.61556C12.6904 4.41839 14.6589 2.33079 15.3231 0.0344238H18.3831C17.8731 2.86429 15.7383 4.95189 14.2202 5.81013C15.7383 6.506 18.1697 8.32685 19.0948 11.6206H15.7264C15.003 9.41705 13.2004 7.71217 10.8165 7.48021V11.6206H10.4487Z" fill="currentColor" />

    </symbol>
    <symbol id="vk" width="100%" height="100%" viewBox="0 0 20 12" fill="none">
      <path d="M10.4487 11.6206C3.96119 11.6206 0.260872 7.27145 0.106689 0.0344238H3.35638C3.46312 5.34622 5.85882 7.59619 7.75644 8.0601V0.0344238H10.8165V4.61556C12.6904 4.41839 14.6589 2.33079 15.3231 0.0344238H18.3831C17.8731 2.86429 15.7383 4.95189 14.2202 5.81013C15.7383 6.506 18.1697 8.32685 19.0948 11.6206H15.7264C15.003 9.41705 13.2004 7.71217 10.8165 7.48021V11.6206H10.4487Z" fill="currentColor" />

    </symbol>
    <symbol id="ruler-pen" width="100%" height="100%" viewBox="0 0 28 28" fill="none">
      <path d="M14.6834 24.9834C15.3668 25.6668 16.4668 25.6668 18.6667 25.6668H21C23.1999 25.6668 24.2998 25.6668 24.9833 24.9834C25.6667 24.3 25.6667 23.2001 25.6667 21.0002V7.00016C25.6667 4.80029 25.6667 3.70033 24.9833 3.01691C24.2998 2.3335 23.1999 2.3335 21 2.3335H18.6667C16.4668 2.3335 15.3668 2.3335 14.6834 3.01691C14.0973 3.603 14.0139 4.4954 14.002 6.12516L16.3333 6.12516C16.8166 6.12516 17.2083 6.51691 17.2083 7.00016C17.2083 7.48341 16.8166 7.87516 16.3333 7.87516H14V9.62516H17.5C17.9833 9.62516 18.375 10.0169 18.375 10.5002C18.375 10.9834 17.9833 11.3752 17.5 11.3752H14V13.1252H16.3333C16.8166 13.1252 17.2083 13.5169 17.2083 14.0002C17.2083 14.4834 16.8166 14.8752 16.3333 14.8752H14V16.6252L17.5 16.6252C17.9833 16.6252 18.375 17.0169 18.375 17.5002C18.375 17.9834 17.9832 18.3752 17.5 18.3752L14 18.3752V20.1252H16.3333C16.8166 20.1252 17.2083 20.5169 17.2083 21.0002C17.2083 21.4834 16.8166 21.8752 16.3333 21.8752H14.002C14.0139 23.5049 14.0973 24.3973 14.6834 24.9834Z" fill="currentColor" />
      <path d="M9.33325 17.7259L9.33325 8.41669C8.4361 8.78651 7.25268 9.10373 5.83346 9.10373C4.41402 9.10373 3.23046 8.78641 2.33325 8.41651L2.33325 17.7259C2.33325 18.4523 2.33325 18.8156 2.37731 19.172C2.42929 19.5925 2.52692 20.0061 2.66847 20.4054C2.78847 20.7439 2.95092 21.0688 3.27581 21.7186L4.98904 25.1451C5.14893 25.4648 5.47575 25.6668 5.83325 25.6668C6.19076 25.6668 6.51758 25.4648 6.67746 25.1451L8.3907 21.7186C8.71558 21.0688 8.87803 20.7439 8.99803 20.4054C9.13959 20.0061 9.23722 19.5925 9.28919 19.172C9.33325 18.8156 9.33325 18.4523 9.33325 17.7259Z" fill="currentColor" />
      <path d="M9.33325 5.8335C9.33325 3.9005 7.76625 2.3335 5.83325 2.3335C3.90026 2.3335 2.33325 3.9005 2.33325 5.8335L2.33325 6.95002C2.36398 6.96546 2.39531 6.98093 2.42725 6.99641C3.22166 7.38158 4.3809 7.76867 5.83346 7.76867C7.28603 7.76867 8.44527 7.38158 9.23968 6.99641C9.27147 6.981 9.30266 6.9656 9.33325 6.95023V5.8335Z" fill="currentColor" />

    </symbol>
    <symbol id="bill-check" width="100%" height="100%" viewBox="0 0 28 28" fill="none">
      <path fill-rule="evenodd" clip-rule="evenodd" d="M8.45252 2.3335H19.5475C20.8995 2.3335 21.5755 2.3335 22.1207 2.5232C23.1546 2.88294 23.9663 3.71855 24.3157 4.78287C24.5 5.34413 24.5 6.04006 24.5 7.4319V23.7701C24.5 24.7713 23.3508 25.3026 22.6239 24.6374C22.1968 24.2466 21.5532 24.2466 21.1261 24.6374L20.5625 25.1531C19.814 25.8381 18.686 25.8381 17.9375 25.1531C17.189 24.4682 16.061 24.4682 15.3125 25.1531C14.564 25.8381 13.436 25.8381 12.6875 25.1531C11.939 24.4682 10.811 24.4682 10.0625 25.1531C9.31398 25.8381 8.18602 25.8381 7.4375 25.1531L6.87389 24.6374C6.4468 24.2466 5.8032 24.2466 5.37611 24.6374C4.64916 25.3026 3.5 24.7713 3.5 23.7701V7.4319C3.5 6.04006 3.5 5.34413 3.68428 4.78287C4.03373 3.71855 4.84542 2.88294 5.87929 2.5232C6.42449 2.3335 7.1005 2.3335 8.45252 2.3335ZM17.5694 9.91627C17.8912 9.5558 17.8599 9.00266 17.4994 8.68081C17.139 8.35896 16.5858 8.39027 16.264 8.75074L12.75 12.6864L11.736 11.5507C11.4142 11.1903 10.861 11.159 10.5006 11.4808C10.1401 11.8027 10.1088 12.3558 10.4306 12.7163L12.0973 14.5829C12.2633 14.7689 12.5007 14.8752 12.75 14.8752C12.9993 14.8752 13.2367 14.7689 13.4027 14.5829L17.5694 9.91627ZM8.75 17.2085C8.26675 17.2085 7.875 17.6003 7.875 18.0835C7.875 18.5668 8.26675 18.9585 8.75 18.9585H19.25C19.7332 18.9585 20.125 18.5668 20.125 18.0835C20.125 17.6003 19.7332 17.2085 19.25 17.2085H8.75Z" fill="currentColor" />

    </symbol>
    <symbol id="widjet" width="100%" height="100%" viewBox="0 0 28 28" fill="none">
      <path d="M15.1667 17.9668C15.1667 15.547 15.1667 14.337 15.9356 13.5853C16.7044 12.8335 17.9419 12.8335 20.4167 12.8335C22.8916 12.8335 24.1291 12.8335 24.8979 13.5853C25.6667 14.337 25.6667 15.547 25.6667 17.9668V20.5335C25.6667 22.9534 25.6667 24.1633 24.8979 24.9151C24.1291 25.6668 22.8916 25.6668 20.4167 25.6668C17.9419 25.6668 16.7044 25.6668 15.9356 24.9151C15.1667 24.1633 15.1667 22.9534 15.1667 20.5335V17.9668Z" fill="currentColor" />
      <path d="M2.33325 10.0335C2.33325 12.4534 2.33325 13.6633 3.1021 14.4151C3.87094 15.1668 5.10838 15.1668 7.58325 15.1668C10.0581 15.1668 11.2956 15.1668 12.0644 14.4151C12.8333 13.6633 12.8333 12.4534 12.8333 10.0335V7.46683C12.8333 5.04695 12.8333 3.83701 12.0644 3.08526C11.2956 2.3335 10.0581 2.3335 7.58325 2.3335C5.10838 2.3335 3.87094 2.3335 3.1021 3.08526C2.33325 3.83701 2.33325 5.04695 2.33325 7.46683V10.0335Z" fill="currentColor" />
      <path d="M15.1667 6.41683C15.1667 5.14843 15.1667 4.51423 15.3666 4.01397C15.633 3.34695 16.144 2.817 16.7872 2.54071C17.2696 2.3335 17.8812 2.3335 19.1042 2.3335H21.7292C22.9523 2.3335 23.5639 2.3335 24.0463 2.54071C24.6895 2.817 25.2005 3.34695 25.4669 4.01397C25.6667 4.51423 25.6667 5.14843 25.6667 6.41683C25.6667 7.68523 25.6667 8.31942 25.4669 8.81969C25.2005 9.48671 24.6895 10.0167 24.0463 10.2929C23.5639 10.5002 22.9523 10.5002 21.7292 10.5002H19.1042C17.8812 10.5002 17.2696 10.5002 16.7872 10.2929C16.144 10.0167 15.633 9.48671 15.3666 8.81969C15.1667 8.31942 15.1667 7.68523 15.1667 6.41683Z" fill="currentColor" />
      <path d="M2.33325 21.5833C2.33325 22.8517 2.33325 23.4859 2.53307 23.9862C2.79949 24.6532 3.31051 25.1832 3.95371 25.4595C4.43611 25.6667 5.04766 25.6667 6.27075 25.6667H8.89575C10.1188 25.6667 10.7304 25.6667 11.2128 25.4595C11.856 25.1832 12.367 24.6532 12.6334 23.9862C12.8333 23.4859 12.8333 22.8517 12.8333 21.5833C12.8333 20.3149 12.8333 19.6807 12.6334 19.1805C12.367 18.5135 11.856 17.9835 11.2128 17.7072C10.7304 17.5 10.1188 17.5 8.89575 17.5H6.27075C5.04766 17.5 4.43611 17.5 3.95371 17.7072C3.31051 17.9835 2.79949 18.5135 2.53307 19.1805C2.33325 19.6807 2.33325 20.3149 2.33325 21.5833Z" fill="currentColor" />

    </symbol>
    <symbol id="file-check" width="100%" height="100%" viewBox="0 0 24 25" fill="none">
      <path d="M19.3517 8.11665L15.3929 4.55375C14.2651 3.53868 13.7012 3.03114 13.0092 2.76562L13 5.50011C13 7.85713 13 9.03564 13.7322 9.76787C14.4645 10.5001 15.643 10.5001 18 10.5001H21.5801C21.2175 9.79588 20.5684 9.21164 19.3517 8.11665Z" fill="currentColor" />
      <path fill-rule="evenodd" clip-rule="evenodd" d="M14 22.5H10C6.22876 22.5 4.34315 22.5 3.17157 21.3284C2 20.1569 2 18.2712 2 14.5V10.5C2 6.72876 2 4.84315 3.17157 3.67157C4.34315 2.5 6.23869 2.5 10.0298 2.5C10.6358 2.5 11.1214 2.5 11.53 2.51666C11.5166 2.59659 11.5095 2.67813 11.5092 2.76057L11.5 5.59497C11.4999 6.69207 11.4998 7.66164 11.6049 8.44316C11.7188 9.29028 11.9803 10.1373 12.6716 10.8285C13.3628 11.5198 14.2098 11.7813 15.0569 11.8952C15.8385 12.0003 16.808 12.0002 17.9051 12.0001L18 12.0001H21.9574C22 12.5344 22 13.1901 22 14.0629V14.5C22 18.2712 22 20.1569 20.8284 21.3284C19.6569 22.5 17.7712 22.5 14 22.5ZM10.4983 14.9394C10.8079 15.2146 10.8357 15.6887 10.5606 15.9983L7.89389 18.9983C7.75156 19.1584 7.54756 19.25 7.33333 19.25C7.11911 19.25 6.9151 19.1584 6.77278 18.9983L5.43944 17.4983C5.16425 17.1887 5.19214 16.7146 5.50173 16.4394C5.81131 16.1643 6.28537 16.1921 6.56056 16.5017L7.33333 17.3711L9.43944 15.0017C9.71463 14.6921 10.1887 14.6643 10.4983 14.9394Z" fill="currentColor" />

    </symbol>
    <symbol id="question" width="100%" height="100%" viewBox="0 0 28 28" fill="none">
      <path d="M14.0002 24.5C19.7992 24.5 24.5002 19.799 24.5002 14C24.5002 8.20101 19.7992 3.5 14.0002 3.5C8.20125 3.5 3.50024 8.20101 3.50024 14C3.50024 19.799 8.20125 24.5 14.0002 24.5Z" stroke="currentColor" stroke-width="2" stroke-linecap="round" stroke-linejoin="round" />
      <path d="M14.0002 19.8333V19.8458" stroke="currentColor" stroke-width="2" stroke-linecap="round" stroke-linejoin="round" />
      <path d="M14.0003 15.7501C13.9788 15.3714 14.081 14.9959 14.2914 14.6803C14.5018 14.3647 14.8091 14.1259 15.167 14.0001C15.6055 13.8324 15.9991 13.5652 16.3168 13.2196C16.6345 12.8739 16.8677 12.4592 16.9979 12.0081C17.1281 11.5571 17.1518 11.0819 17.0672 10.6201C16.9826 10.1583 16.7919 9.72247 16.5102 9.34688C16.2285 8.97129 15.8635 8.66621 15.4438 8.45567C15.0242 8.24512 14.5614 8.13486 14.0919 8.13356C13.6225 8.13225 13.1591 8.23995 12.7383 8.44816C12.3175 8.65638 11.9508 8.95942 11.667 9.33344" stroke="currentColor" stroke-width="2" stroke-linecap="round" stroke-linejoin="round" />


    </symbol>
    <symbol id="like" width="100%" height="100%" viewBox="0 0 65 64" fill="none">
      <path d="M54.5523 43.3734L56.4337 32.494C56.9036 29.7767 54.814 27.2914 52.0594 27.2914H38.2431C36.8738 27.2914 35.8311 26.0623 36.0527 24.7094L37.8198 13.924C38.1069 12.1718 38.0249 10.3788 37.5791 8.66023C37.2098 7.23654 36.1114 6.09336 34.6668 5.6293L34.2802 5.50511C33.4072 5.22464 32.4543 5.28991 31.6312 5.68654C30.7252 6.12313 30.0623 6.91945 29.8167 7.86653L28.5481 12.7568C28.1445 14.3128 27.5566 15.8147 26.7985 17.2338C25.6909 19.3073 23.9784 20.9667 22.1983 22.5007L18.3617 25.8068C17.2799 26.739 16.7118 28.135 16.8349 29.5586L19.0007 54.6057C19.1994 56.9031 21.1202 58.6668 23.4236 58.6668H35.8199C45.1033 58.6668 53.0261 52.1985 54.5523 43.3734Z" fill="currentColor" />
      <path fill-rule="evenodd" clip-rule="evenodd" d="M8.41377 25.2934C9.48381 25.2472 10.4003 26.0522 10.4926 27.1192L13.0835 57.0833C13.2499 59.0081 11.7338 60.667 9.79788 60.667C7.97437 60.667 6.5 59.1877 6.5 57.3676V27.2915C6.5 26.2205 7.34374 25.3396 8.41377 25.2934Z" fill="currentColor" />

    </symbol>
    <symbol id="sad" width="100%" height="100%" viewBox="0 0 64 64" fill="none">
      <path fill-rule="evenodd" clip-rule="evenodd" d="M32.0002 58.6668C46.7278 58.6668 58.6668 46.7278 58.6668 32.0002C58.6668 17.2726 46.7278 5.3335 32.0002 5.3335C17.2726 5.3335 5.3335 17.2726 5.3335 32.0002C5.3335 46.7278 17.2726 58.6668 32.0002 58.6668ZM40.0002 32.0002C41.4729 32.0002 42.6668 30.2093 42.6668 28.0002C42.6668 25.791 41.4729 24.0002 40.0002 24.0002C38.5274 24.0002 37.3335 25.791 37.3335 28.0002C37.3335 30.2093 38.5274 32.0002 40.0002 32.0002ZM26.6668 28.0002C26.6668 30.2093 25.4729 32.0002 24.0002 32.0002C22.5274 32.0002 21.3335 30.2093 21.3335 28.0002C21.3335 25.791 22.5274 24.0002 24.0002 24.0002C25.4729 24.0002 26.6668 25.791 26.6668 28.0002ZM22.3934 46.5245C23.0512 47.4118 24.3038 47.598 25.1911 46.9402C27.1334 45.5006 29.4778 44.6668 32.0002 44.6668C34.5226 44.6668 36.867 45.5006 38.8092 46.9402C39.6966 47.598 40.9491 47.4118 41.6069 46.5245C42.2646 45.6371 42.0785 44.3845 41.1911 43.7268C38.598 41.8047 35.4268 40.6668 32.0002 40.6668C28.5736 40.6668 25.4023 41.8047 22.8092 43.7268C21.9218 44.3845 21.7357 45.6371 22.3934 46.5245Z" fill="currentColor" />

    </symbol>

    <!--  -->
    <!--  -->
    <!--  -->
  </defs>
</svg>