<svg width="155" height="48" viewBox="0 0 155 48" fill="none" xmlns="http://www.w3.org/2000/svg">
<path d="M48.0968 46.8754H35.8724L22.1567 26.9737C21.8057 26.4642 21.406 25.6705 20.9577 24.5926H20.8114V46.8754H11.1606V1.33972H20.8114V22.8582H20.9577C21.3866 21.9175 21.8155 21.1041 22.2444 20.4183L35.2291 1.33972H46.7515L30.5499 23.0639L48.0968 46.8754Z" fill="white"/>
<path d="M9.7935 1.44855V46.7711H0V1.44855H9.7935Z" fill="white"/>
<path d="M63.255 11.8646L62.1578 13.7112V20H60.0704V1.26726H62.1578V10.3125L67.1354 1.26726H69.2495L64.5128 9.80404L69.4101 20H67.2692L63.255 11.8646ZM70.86 5.78988C70.86 2.92644 72.2783 1.07993 75.1417 1.07993C78.0319 1.07993 79.4503 2.92644 79.4503 5.78988V15.4774C79.4503 18.3141 78.0319 20.1873 75.1417 20.1873C72.2783 20.1873 70.86 18.3141 70.86 15.4774V5.78988ZM72.9206 15.5844C72.9206 17.2971 73.6431 18.2873 75.1417 18.2873C76.6671 18.2873 77.3629 17.2971 77.3629 15.5844V5.68283C77.3629 3.99688 76.6671 2.97996 75.1417 2.97996C73.6431 2.97996 72.9206 3.99688 72.9206 5.68283V15.5844ZM88.3262 19.9732H86.3191L83.2148 5.06733V20H81.395V1.26726H84.312L87.3895 16.2267L90.36 1.26726H93.2769V20H91.2966V4.93352L88.3262 19.9732ZM97.5437 16.2267L96.8211 20H94.8943L98.4803 1.26726H101.504L105.09 20H103.003L102.28 16.2267H97.5437ZM97.8113 14.4337H101.986L99.8719 3.62223L97.8113 14.4337ZM108.807 11.5703V20H106.719V1.26726H108.807V9.69699H113.41V1.26726H115.497V20H113.41V11.5703H108.807ZM126.876 22.5691V20H119.222V22.5691H117.215V18.1535H118.419C119.062 17.4309 119.195 16.5746 119.249 15.4239L119.972 1.26726H127.491V18.1535H128.91V22.5691H126.876ZM121.283 15.3971C121.203 16.7352 121.015 17.538 120.426 18.1535H125.377V3.16729H121.898L121.283 15.3971ZM132.85 16.2267L132.128 20H130.201L133.787 1.26726H136.811L140.397 20H138.31L137.587 16.2267H132.85ZM133.118 14.4337H137.293L135.179 3.62223L133.118 14.4337ZM63.255 38.8646L62.1578 40.7112V47H60.0704V28.2673H62.1578V37.3125L67.1354 28.2673H69.2495L64.5128 36.804L69.4101 47H67.2692L63.255 38.8646ZM75.115 28.2673C78.0587 28.2673 79.3165 30.0067 79.3165 32.8434V35.0913C79.3165 38.0618 77.9249 39.6139 74.9544 39.6139H73.1079V47H71.0205V28.2673H75.115ZM74.9544 37.7407C76.5065 37.7407 77.2559 37.0181 77.2559 35.2251V32.7364C77.2559 31.0236 76.6403 30.1673 75.115 30.1673H73.1079V37.7407H74.9544ZM83.0655 43.2267L82.343 47H80.4162L84.0021 28.2673H87.0261L90.6121 47H88.5248L87.8022 43.2267H83.0655ZM83.3331 41.4337H87.5078L85.3937 30.6222L83.3331 41.4337ZM96.4427 28.2673C99.3597 28.2673 100.51 29.6588 100.51 32.4152V33.2983C100.51 35.2787 99.9484 36.5097 98.316 37.0181C100.136 37.5266 100.832 38.9717 100.832 41.0323V42.6112C100.832 45.4211 99.4667 47 96.5497 47H92.2412V28.2673H96.4427ZM95.9342 36.2153C97.5934 36.2153 98.4498 35.6801 98.4498 33.7265V32.6293C98.4498 30.9701 97.8878 30.1673 96.3892 30.1673H94.3286V36.2153H95.9342ZM96.5497 45.1C98.0751 45.1 98.7709 44.2971 98.7709 42.5577V40.8985C98.7709 38.8111 97.9413 38.1153 96.1483 38.1153H94.3286V45.1H96.5497ZM109.224 38.7041C108.555 39.6675 107.431 40.1759 106.307 40.1759C103.791 40.1759 102.587 38.2491 102.587 35.7336V28.2673H104.674V35.573C104.674 37.1519 105.504 38.2759 106.976 38.2759C108.234 38.2759 109.01 37.4998 109.224 36.0815V28.2673H111.284V47H109.224V38.7041ZM120.125 36.5632V38.4365H115.549V45.1H121.169V47H113.462V28.2673H121.169V30.1673H115.549V36.5632H120.125ZM125.193 38.5703V47H123.105V28.2673H125.193V36.697H129.796V28.2673H131.883V47H129.796V38.5703H125.193ZM137.214 38.8646L136.117 40.7112V47H134.029V28.2673H136.117V37.3125L141.094 28.2673H143.208L138.472 36.804L143.369 47H141.228L137.214 38.8646ZM144.819 32.7899C144.819 29.9264 146.237 28.0799 149.101 28.0799C151.991 28.0799 153.409 29.9264 153.409 32.7899V42.4774C153.409 45.3141 151.991 47.1873 149.101 47.1873C146.237 47.1873 144.819 45.3141 144.819 42.4774V32.7899ZM146.879 42.5844C146.879 44.2971 147.602 45.2873 149.101 45.2873C150.626 45.2873 151.322 44.2971 151.322 42.5844V32.6828C151.322 30.9969 150.626 29.98 149.101 29.98C147.602 29.98 146.879 30.9969 146.879 32.6828V42.5844Z" fill="white"/>
</svg>
