<svg width="155" height="56" viewBox="0 0 155 56" fill="none" xmlns="http://www.w3.org/2000/svg">
<path d="M48.097 47.8507H35.8727L22.1569 27.949C21.8059 27.4394 21.4063 26.6457 20.9579 25.5679H20.8117V47.8507H11.1609V2.31494H20.8117V23.8335H20.9579C21.3868 22.8928 21.8157 22.0793 22.2446 21.3935L35.2293 2.31494H46.7518L30.5501 24.0392L48.097 47.8507Z" fill="#0085EA"/>
<path d="M9.7935 2.42383V47.7464H0V2.42383H9.7935Z" fill="#0085EA"/>
<path d="M63.0402 12.8397L61.943 14.6862V20.9751H59.8556V2.24235H61.943V11.2876L66.9205 2.24235H69.0346L64.2979 10.7791L69.1952 20.9751H67.0543L63.0402 12.8397ZM70.6451 6.76497C70.6451 3.90154 72.0635 2.05503 74.9269 2.05503C77.8171 2.05503 79.2354 3.90154 79.2354 6.76497V16.4525C79.2354 19.2892 77.8171 21.1624 74.9269 21.1624C72.0635 21.1624 70.6451 19.2892 70.6451 16.4525V6.76497ZM72.7057 16.5595C72.7057 18.2722 73.4283 19.2624 74.9269 19.2624C76.4523 19.2624 77.1481 18.2722 77.1481 16.5595V6.65793C77.1481 4.97198 76.4523 3.95506 74.9269 3.95506C73.4283 3.95506 72.7057 4.97198 72.7057 6.65793V16.5595ZM88.1113 20.9483H86.1042L82.9999 6.04243V20.9751H81.1802V2.24235H84.0971L87.1747 17.2018L90.1451 2.24235H93.0621V20.9751H91.0818V5.90862L88.1113 20.9483ZM97.3288 17.2018L96.6063 20.9751H94.6795L98.2655 2.24235H101.289L104.875 20.9751H102.788L102.066 17.2018H97.3288ZM97.5964 15.4088H101.771L99.657 4.59733L97.5964 15.4088ZM108.592 12.5454V20.9751H106.505V2.24235H108.592V10.6721H113.195V2.24235H115.282V20.9751H113.195V12.5454H108.592ZM126.661 23.5442V20.9751H119.007V23.5442H117V19.1286H118.205C118.847 18.406 118.981 17.5497 119.034 16.399L119.757 2.24235H127.277V19.1286H128.695V23.5442H126.661ZM121.068 16.3722C120.988 17.7102 120.8 18.5131 120.212 19.1286H125.162V4.14239H121.683L121.068 16.3722ZM132.636 17.2018L131.913 20.9751H129.986L133.572 2.24235H136.596L140.182 20.9751H138.095L137.372 17.2018H132.636ZM132.903 15.4088H137.078L134.964 4.59733L132.903 15.4088ZM63.0402 39.8397L61.943 41.6862V47.9751H59.8556V29.2424H61.943V38.2876L66.9205 29.2424H69.0346L64.2979 37.7791L69.1952 47.9751H67.0543L63.0402 39.8397ZM74.9001 29.2424C77.8438 29.2424 79.1016 30.9818 79.1016 33.8185V36.0664C79.1016 39.0369 77.71 40.589 74.7396 40.589H72.893V47.9751H70.8057V29.2424H74.9001ZM74.7396 38.7158C76.2917 38.7158 77.041 37.9932 77.041 36.2002V33.7115C77.041 31.9987 76.4255 31.1424 74.9001 31.1424H72.893V38.7158H74.7396ZM82.8507 44.2018L82.1281 47.9751H80.2013L83.7873 29.2424H86.8113L90.3973 47.9751H88.3099L87.5874 44.2018H82.8507ZM83.1183 42.4088H87.293L85.1789 31.5973L83.1183 42.4088ZM96.2279 29.2424C99.1448 29.2424 100.296 30.6339 100.296 33.3903V34.2734C100.296 36.2538 99.7336 37.4848 98.1011 37.9932C99.9209 38.5017 100.617 39.9468 100.617 42.0074V43.5863C100.617 46.3962 99.2519 47.9751 96.3349 47.9751H92.0264V29.2424H96.2279ZM95.7194 37.1904C97.3786 37.1904 98.2349 36.6552 98.2349 34.7016V33.6044C98.2349 31.9452 97.673 31.1424 96.1743 31.1424H94.1137V37.1904H95.7194ZM96.3349 46.0751C97.8603 46.0751 98.5561 45.2722 98.5561 43.5328V41.8736C98.5561 39.7862 97.7265 39.0904 95.9335 39.0904H94.1137V46.0751H96.3349ZM109.009 39.6792C108.34 40.6426 107.216 41.151 106.092 41.151C103.576 41.151 102.372 39.2242 102.372 36.7087V29.2424H104.46V36.5481C104.46 38.127 105.289 39.251 106.761 39.251C108.019 39.251 108.795 38.4749 109.009 37.0566V29.2424H111.07V47.9751H109.009V39.6792ZM119.911 37.5383V39.4116H115.334V46.0751H120.954V47.9751H113.247V29.2424H120.954V31.1424H115.334V37.5383H119.911ZM124.978 39.5454V47.9751H122.89V29.2424H124.978V37.6721H129.581V29.2424H131.668V47.9751H129.581V39.5454H124.978ZM136.999 39.8397L135.902 41.6862V47.9751H133.814V29.2424H135.902V38.2876L140.879 29.2424H142.993L138.257 37.7791L143.154 47.9751H141.013L136.999 39.8397ZM144.604 33.765C144.604 30.9015 146.022 29.055 148.886 29.055C151.776 29.055 153.194 30.9015 153.194 33.765V43.4525C153.194 46.2892 151.776 48.1624 148.886 48.1624C146.022 48.1624 144.604 46.2892 144.604 43.4525V33.765ZM146.665 43.5595C146.665 45.2722 147.387 46.2624 148.886 46.2624C150.411 46.2624 151.107 45.2722 151.107 43.5595V33.6579C151.107 31.972 150.411 30.9551 148.886 30.9551C147.387 30.9551 146.665 31.972 146.665 33.6579V43.5595Z" fill="#0085EA"/>
</svg>
