<svg width="18" height="18" viewBox="0 0 18 18" fill="none" xmlns="http://www.w3.org/2000/svg">
<rect x="3.39258" y="1.14453" width="11.2148" height="15.7061" rx="2.6" fill="url(#paint0_linear_98_2477)"/>
<rect x="3.39258" y="1.14453" width="11.2148" height="15.7061" rx="2.6" fill="url(#paint1_linear_98_2477)"/>
<g filter="url(#filter0_ii_98_2477)">
<path d="M5.17676 5.10752C5.17676 4.92112 5.32786 4.77002 5.51426 4.77002H6.70254C6.88894 4.77002 7.04004 4.92112 7.04004 5.10752V6.2958C7.04004 6.4822 6.88894 6.6333 6.70254 6.6333H5.51426C5.32786 6.6333 5.17676 6.4822 5.17676 6.2958V5.10752Z" fill="#FF9544"/>
<path d="M5.17676 5.10752C5.17676 4.92112 5.32786 4.77002 5.51426 4.77002H6.70254C6.88894 4.77002 7.04004 4.92112 7.04004 5.10752V6.2958C7.04004 6.4822 6.88894 6.6333 6.70254 6.6333H5.51426C5.32786 6.6333 5.17676 6.4822 5.17676 6.2958V5.10752Z" fill="url(#paint2_linear_98_2477)"/>
</g>
<g filter="url(#filter1_ii_98_2477)">
<path d="M8.06836 5.10752C8.06836 4.92112 8.21946 4.77002 8.40586 4.77002H9.59414C9.78054 4.77002 9.93164 4.92112 9.93164 5.10752V6.2958C9.93164 6.4822 9.78054 6.6333 9.59414 6.6333H8.40586C8.21946 6.6333 8.06836 6.4822 8.06836 6.2958V5.10752Z" fill="#38C6FF"/>
</g>
<g filter="url(#filter2_ii_98_2477)">
<path d="M10.96 5.10752C10.96 4.92112 11.1111 4.77002 11.2975 4.77002H12.4857C12.6721 4.77002 12.8232 4.92112 12.8232 5.10752V6.2958C12.8232 6.4822 12.6721 6.6333 12.4857 6.6333H11.2975C11.1111 6.6333 10.96 6.4822 10.96 6.2958V5.10752Z" fill="#FFEC58"/>
</g>
<g filter="url(#filter3_ii_98_2477)">
<path d="M5.17676 8.40342C5.17676 8.21702 5.32786 8.06592 5.51426 8.06592H6.70254C6.88894 8.06592 7.04004 8.21702 7.04004 8.40342V9.5917C7.04004 9.7781 6.88894 9.9292 6.70254 9.9292H5.51426C5.32786 9.9292 5.17676 9.7781 5.17676 9.5917V8.40342Z" fill="#38C6FF"/>
</g>
<g filter="url(#filter4_ii_98_2477)">
<path d="M5.17676 11.6993C5.17676 11.5129 5.32786 11.3618 5.51426 11.3618H6.70254C6.88894 11.3618 7.04004 11.5129 7.04004 11.6993V12.8876C7.04004 13.074 6.88894 13.2251 6.70254 13.2251H5.51426C5.32786 13.2251 5.17676 13.074 5.17676 12.8876V11.6993Z" fill="#FF9544"/>
<path d="M5.17676 11.6993C5.17676 11.5129 5.32786 11.3618 5.51426 11.3618H6.70254C6.88894 11.3618 7.04004 11.5129 7.04004 11.6993V12.8876C7.04004 13.074 6.88894 13.2251 6.70254 13.2251H5.51426C5.32786 13.2251 5.17676 13.074 5.17676 12.8876V11.6993Z" fill="url(#paint3_linear_98_2477)"/>
</g>
<g filter="url(#filter5_ii_98_2477)">
<path d="M8.06836 8.40342C8.06836 8.21702 8.21946 8.06592 8.40586 8.06592H9.59414C9.78054 8.06592 9.93164 8.21702 9.93164 8.40342V9.5917C9.93164 9.7781 9.78054 9.9292 9.59414 9.9292H8.40586C8.21946 9.9292 8.06836 9.7781 8.06836 9.5917V8.40342Z" fill="#FFEC58"/>
</g>
<g filter="url(#filter6_ii_98_2477)">
<path d="M8.06836 11.6993C8.06836 11.5129 8.21946 11.3618 8.40586 11.3618H9.59414C9.78054 11.3618 9.93164 11.5129 9.93164 11.6993V12.8876C9.93164 13.074 9.78054 13.2251 9.59414 13.2251H8.40586C8.21946 13.2251 8.06836 13.074 8.06836 12.8876V11.6993Z" fill="#38C6FF"/>
</g>
<g filter="url(#filter7_ii_98_2477)">
<path d="M10.96 8.40342C10.96 8.21702 11.1111 8.06592 11.2975 8.06592H12.4857C12.6721 8.06592 12.8232 8.21702 12.8232 8.40342V9.5917C12.8232 9.7781 12.6721 9.9292 12.4857 9.9292H11.2975C11.1111 9.9292 10.96 9.7781 10.96 9.5917V8.40342Z" fill="#FF9544"/>
<path d="M10.96 8.40342C10.96 8.21702 11.1111 8.06592 11.2975 8.06592H12.4857C12.6721 8.06592 12.8232 8.21702 12.8232 8.40342V9.5917C12.8232 9.7781 12.6721 9.9292 12.4857 9.9292H11.2975C11.1111 9.9292 10.96 9.7781 10.96 9.5917V8.40342Z" fill="url(#paint4_linear_98_2477)"/>
</g>
<g filter="url(#filter8_ii_98_2477)">
<path d="M10.96 11.6993C10.96 11.5129 11.1111 11.3618 11.2975 11.3618H12.4857C12.6721 11.3618 12.8232 11.5129 12.8232 11.6993V12.8876C12.8232 13.074 12.6721 13.2251 12.4857 13.2251H11.2975C11.1111 13.2251 10.96 13.074 10.96 12.8876V11.6993Z" fill="#FFEC58"/>
</g>
<g filter="url(#filter9_f_98_2477)">
<rect x="13.3242" y="3.14844" width="0.861328" height="12.2871" fill="url(#paint5_linear_98_2477)"/>
</g>
<g filter="url(#filter10_i_98_2477)">
<path d="M14.6074 3.46484H3.39258V2.60703C3.39258 1.79932 4.04736 1.14453 4.85508 1.14453H13.1449C13.9526 1.14453 14.6074 1.79932 14.6074 2.60703V3.46484Z" fill="url(#paint6_linear_98_2477)"/>
<path d="M14.6074 3.46484H3.39258V2.60703C3.39258 1.79932 4.04736 1.14453 4.85508 1.14453H13.1449C13.9526 1.14453 14.6074 1.79932 14.6074 2.60703V3.46484Z" fill="url(#paint7_linear_98_2477)"/>
<path d="M14.6074 3.46484H3.39258V2.60703C3.39258 1.79932 4.04736 1.14453 4.85508 1.14453H13.1449C13.9526 1.14453 14.6074 1.79932 14.6074 2.60703V3.46484Z" fill="url(#paint8_linear_98_2477)"/>
<path d="M14.6074 3.46484H3.39258V2.60703C3.39258 1.79932 4.04736 1.14453 4.85508 1.14453H13.1449C13.9526 1.14453 14.6074 1.79932 14.6074 2.60703V3.46484Z" fill="url(#paint9_linear_98_2477)"/>
<path d="M14.6074 3.46484H3.39258V2.60703C3.39258 1.79932 4.04736 1.14453 4.85508 1.14453H13.1449C13.9526 1.14453 14.6074 1.79932 14.6074 2.60703V3.46484Z" fill="url(#paint10_radial_98_2477)"/>
</g>
<path d="M14.6074 14.5566V15.3881C14.6074 16.1958 13.9526 16.8506 13.1449 16.8506H4.85508C4.04736 16.8506 3.39258 16.1958 3.39258 15.3881V14.5566H14.6074Z" fill="url(#paint11_linear_98_2477)"/>
<path d="M14.6074 14.5566V15.3881C14.6074 16.1958 13.9526 16.8506 13.1449 16.8506H4.85508C4.04736 16.8506 3.39258 16.1958 3.39258 15.3881V14.5566H14.6074Z" fill="url(#paint12_linear_98_2477)"/>
<path d="M14.6074 14.5566V15.3881C14.6074 16.1958 13.9526 16.8506 13.1449 16.8506H4.85508C4.04736 16.8506 3.39258 16.1958 3.39258 15.3881V14.5566H14.6074Z" fill="url(#paint13_radial_98_2477)"/>
<path d="M14.6074 14.5566V15.3881C14.6074 16.1958 13.9526 16.8506 13.1449 16.8506H4.85508C4.04736 16.8506 3.39258 16.1958 3.39258 15.3881V14.5566H14.6074Z" fill="url(#paint14_linear_98_2477)"/>
<defs>
<filter id="filter0_ii_98_2477" x="4.87676" y="4.47002" width="2.46328" height="2.46328" filterUnits="userSpaceOnUse" color-interpolation-filters="sRGB">
<feFlood flood-opacity="0" result="BackgroundImageFix"/>
<feBlend mode="normal" in="SourceGraphic" in2="BackgroundImageFix" result="shape"/>
<feColorMatrix in="SourceAlpha" type="matrix" values="0 0 0 0 0 0 0 0 0 0 0 0 0 0 0 0 0 0 127 0" result="hardAlpha"/>
<feOffset dx="-0.3" dy="-0.3"/>
<feGaussianBlur stdDeviation="0.2"/>
<feComposite in2="hardAlpha" operator="arithmetic" k2="-1" k3="1"/>
<feColorMatrix type="matrix" values="0 0 0 0 0.913725 0 0 0 0 0.384314 0 0 0 0 0.129412 0 0 0 1 0"/>
<feBlend mode="normal" in2="shape" result="effect1_innerShadow_98_2477"/>
<feColorMatrix in="SourceAlpha" type="matrix" values="0 0 0 0 0 0 0 0 0 0 0 0 0 0 0 0 0 0 127 0" result="hardAlpha"/>
<feOffset dx="0.3" dy="0.3"/>
<feGaussianBlur stdDeviation="0.2"/>
<feComposite in2="hardAlpha" operator="arithmetic" k2="-1" k3="1"/>
<feColorMatrix type="matrix" values="0 0 0 0 1 0 0 0 0 0.498039 0 0 0 0 0.160784 0 0 0 1 0"/>
<feBlend mode="normal" in2="effect1_innerShadow_98_2477" result="effect2_innerShadow_98_2477"/>
</filter>
<filter id="filter1_ii_98_2477" x="7.76836" y="4.47002" width="2.46328" height="2.46328" filterUnits="userSpaceOnUse" color-interpolation-filters="sRGB">
<feFlood flood-opacity="0" result="BackgroundImageFix"/>
<feBlend mode="normal" in="SourceGraphic" in2="BackgroundImageFix" result="shape"/>
<feColorMatrix in="SourceAlpha" type="matrix" values="0 0 0 0 0 0 0 0 0 0 0 0 0 0 0 0 0 0 127 0" result="hardAlpha"/>
<feOffset dx="-0.3" dy="-0.3"/>
<feGaussianBlur stdDeviation="0.25"/>
<feComposite in2="hardAlpha" operator="arithmetic" k2="-1" k3="1"/>
<feColorMatrix type="matrix" values="0 0 0 0 0.0980392 0 0 0 0 0.572549 0 0 0 0 0.866667 0 0 0 1 0"/>
<feBlend mode="normal" in2="shape" result="effect1_innerShadow_98_2477"/>
<feColorMatrix in="SourceAlpha" type="matrix" values="0 0 0 0 0 0 0 0 0 0 0 0 0 0 0 0 0 0 127 0" result="hardAlpha"/>
<feOffset dx="0.3" dy="0.3"/>
<feGaussianBlur stdDeviation="0.2"/>
<feComposite in2="hardAlpha" operator="arithmetic" k2="-1" k3="1"/>
<feColorMatrix type="matrix" values="0 0 0 0 0.0745098 0 0 0 0 0.709804 0 0 0 0 1 0 0 0 1 0"/>
<feBlend mode="normal" in2="effect1_innerShadow_98_2477" result="effect2_innerShadow_98_2477"/>
</filter>
<filter id="filter2_ii_98_2477" x="10.66" y="4.47002" width="2.46328" height="2.46328" filterUnits="userSpaceOnUse" color-interpolation-filters="sRGB">
<feFlood flood-opacity="0" result="BackgroundImageFix"/>
<feBlend mode="normal" in="SourceGraphic" in2="BackgroundImageFix" result="shape"/>
<feColorMatrix in="SourceAlpha" type="matrix" values="0 0 0 0 0 0 0 0 0 0 0 0 0 0 0 0 0 0 127 0" result="hardAlpha"/>
<feOffset dx="-0.3" dy="-0.3"/>
<feGaussianBlur stdDeviation="0.25"/>
<feComposite in2="hardAlpha" operator="arithmetic" k2="-1" k3="1"/>
<feColorMatrix type="matrix" values="0 0 0 0 0.858824 0 0 0 0 0.752941 0 0 0 0 0.188235 0 0 0 1 0"/>
<feBlend mode="normal" in2="shape" result="effect1_innerShadow_98_2477"/>
<feColorMatrix in="SourceAlpha" type="matrix" values="0 0 0 0 0 0 0 0 0 0 0 0 0 0 0 0 0 0 127 0" result="hardAlpha"/>
<feOffset dx="0.3" dy="0.3"/>
<feGaussianBlur stdDeviation="0.2"/>
<feComposite in2="hardAlpha" operator="arithmetic" k2="-1" k3="1"/>
<feColorMatrix type="matrix" values="0 0 0 0 0.968627 0 0 0 0 0.858824 0 0 0 0 0.223529 0 0 0 1 0"/>
<feBlend mode="normal" in2="effect1_innerShadow_98_2477" result="effect2_innerShadow_98_2477"/>
</filter>
<filter id="filter3_ii_98_2477" x="4.87676" y="7.76592" width="2.46328" height="2.46328" filterUnits="userSpaceOnUse" color-interpolation-filters="sRGB">
<feFlood flood-opacity="0" result="BackgroundImageFix"/>
<feBlend mode="normal" in="SourceGraphic" in2="BackgroundImageFix" result="shape"/>
<feColorMatrix in="SourceAlpha" type="matrix" values="0 0 0 0 0 0 0 0 0 0 0 0 0 0 0 0 0 0 127 0" result="hardAlpha"/>
<feOffset dx="-0.3" dy="-0.3"/>
<feGaussianBlur stdDeviation="0.25"/>
<feComposite in2="hardAlpha" operator="arithmetic" k2="-1" k3="1"/>
<feColorMatrix type="matrix" values="0 0 0 0 0.0980392 0 0 0 0 0.572549 0 0 0 0 0.866667 0 0 0 1 0"/>
<feBlend mode="normal" in2="shape" result="effect1_innerShadow_98_2477"/>
<feColorMatrix in="SourceAlpha" type="matrix" values="0 0 0 0 0 0 0 0 0 0 0 0 0 0 0 0 0 0 127 0" result="hardAlpha"/>
<feOffset dx="0.3" dy="0.3"/>
<feGaussianBlur stdDeviation="0.2"/>
<feComposite in2="hardAlpha" operator="arithmetic" k2="-1" k3="1"/>
<feColorMatrix type="matrix" values="0 0 0 0 0.0745098 0 0 0 0 0.709804 0 0 0 0 1 0 0 0 1 0"/>
<feBlend mode="normal" in2="effect1_innerShadow_98_2477" result="effect2_innerShadow_98_2477"/>
</filter>
<filter id="filter4_ii_98_2477" x="4.87676" y="11.0618" width="2.46328" height="2.46328" filterUnits="userSpaceOnUse" color-interpolation-filters="sRGB">
<feFlood flood-opacity="0" result="BackgroundImageFix"/>
<feBlend mode="normal" in="SourceGraphic" in2="BackgroundImageFix" result="shape"/>
<feColorMatrix in="SourceAlpha" type="matrix" values="0 0 0 0 0 0 0 0 0 0 0 0 0 0 0 0 0 0 127 0" result="hardAlpha"/>
<feOffset dx="-0.3" dy="-0.3"/>
<feGaussianBlur stdDeviation="0.2"/>
<feComposite in2="hardAlpha" operator="arithmetic" k2="-1" k3="1"/>
<feColorMatrix type="matrix" values="0 0 0 0 0.913725 0 0 0 0 0.384314 0 0 0 0 0.129412 0 0 0 1 0"/>
<feBlend mode="normal" in2="shape" result="effect1_innerShadow_98_2477"/>
<feColorMatrix in="SourceAlpha" type="matrix" values="0 0 0 0 0 0 0 0 0 0 0 0 0 0 0 0 0 0 127 0" result="hardAlpha"/>
<feOffset dx="0.3" dy="0.3"/>
<feGaussianBlur stdDeviation="0.2"/>
<feComposite in2="hardAlpha" operator="arithmetic" k2="-1" k3="1"/>
<feColorMatrix type="matrix" values="0 0 0 0 1 0 0 0 0 0.498039 0 0 0 0 0.160784 0 0 0 1 0"/>
<feBlend mode="normal" in2="effect1_innerShadow_98_2477" result="effect2_innerShadow_98_2477"/>
</filter>
<filter id="filter5_ii_98_2477" x="7.76836" y="7.76592" width="2.46328" height="2.46328" filterUnits="userSpaceOnUse" color-interpolation-filters="sRGB">
<feFlood flood-opacity="0" result="BackgroundImageFix"/>
<feBlend mode="normal" in="SourceGraphic" in2="BackgroundImageFix" result="shape"/>
<feColorMatrix in="SourceAlpha" type="matrix" values="0 0 0 0 0 0 0 0 0 0 0 0 0 0 0 0 0 0 127 0" result="hardAlpha"/>
<feOffset dx="-0.3" dy="-0.3"/>
<feGaussianBlur stdDeviation="0.25"/>
<feComposite in2="hardAlpha" operator="arithmetic" k2="-1" k3="1"/>
<feColorMatrix type="matrix" values="0 0 0 0 0.858824 0 0 0 0 0.752941 0 0 0 0 0.188235 0 0 0 1 0"/>
<feBlend mode="normal" in2="shape" result="effect1_innerShadow_98_2477"/>
<feColorMatrix in="SourceAlpha" type="matrix" values="0 0 0 0 0 0 0 0 0 0 0 0 0 0 0 0 0 0 127 0" result="hardAlpha"/>
<feOffset dx="0.3" dy="0.3"/>
<feGaussianBlur stdDeviation="0.2"/>
<feComposite in2="hardAlpha" operator="arithmetic" k2="-1" k3="1"/>
<feColorMatrix type="matrix" values="0 0 0 0 0.968627 0 0 0 0 0.858824 0 0 0 0 0.223529 0 0 0 1 0"/>
<feBlend mode="normal" in2="effect1_innerShadow_98_2477" result="effect2_innerShadow_98_2477"/>
</filter>
<filter id="filter6_ii_98_2477" x="7.76836" y="11.0618" width="2.46328" height="2.46328" filterUnits="userSpaceOnUse" color-interpolation-filters="sRGB">
<feFlood flood-opacity="0" result="BackgroundImageFix"/>
<feBlend mode="normal" in="SourceGraphic" in2="BackgroundImageFix" result="shape"/>
<feColorMatrix in="SourceAlpha" type="matrix" values="0 0 0 0 0 0 0 0 0 0 0 0 0 0 0 0 0 0 127 0" result="hardAlpha"/>
<feOffset dx="-0.3" dy="-0.3"/>
<feGaussianBlur stdDeviation="0.25"/>
<feComposite in2="hardAlpha" operator="arithmetic" k2="-1" k3="1"/>
<feColorMatrix type="matrix" values="0 0 0 0 0.0980392 0 0 0 0 0.572549 0 0 0 0 0.866667 0 0 0 1 0"/>
<feBlend mode="normal" in2="shape" result="effect1_innerShadow_98_2477"/>
<feColorMatrix in="SourceAlpha" type="matrix" values="0 0 0 0 0 0 0 0 0 0 0 0 0 0 0 0 0 0 127 0" result="hardAlpha"/>
<feOffset dx="0.3" dy="0.3"/>
<feGaussianBlur stdDeviation="0.2"/>
<feComposite in2="hardAlpha" operator="arithmetic" k2="-1" k3="1"/>
<feColorMatrix type="matrix" values="0 0 0 0 0.0745098 0 0 0 0 0.709804 0 0 0 0 1 0 0 0 1 0"/>
<feBlend mode="normal" in2="effect1_innerShadow_98_2477" result="effect2_innerShadow_98_2477"/>
</filter>
<filter id="filter7_ii_98_2477" x="10.66" y="7.76592" width="2.46328" height="2.46328" filterUnits="userSpaceOnUse" color-interpolation-filters="sRGB">
<feFlood flood-opacity="0" result="BackgroundImageFix"/>
<feBlend mode="normal" in="SourceGraphic" in2="BackgroundImageFix" result="shape"/>
<feColorMatrix in="SourceAlpha" type="matrix" values="0 0 0 0 0 0 0 0 0 0 0 0 0 0 0 0 0 0 127 0" result="hardAlpha"/>
<feOffset dx="-0.3" dy="-0.3"/>
<feGaussianBlur stdDeviation="0.2"/>
<feComposite in2="hardAlpha" operator="arithmetic" k2="-1" k3="1"/>
<feColorMatrix type="matrix" values="0 0 0 0 0.913725 0 0 0 0 0.384314 0 0 0 0 0.129412 0 0 0 1 0"/>
<feBlend mode="normal" in2="shape" result="effect1_innerShadow_98_2477"/>
<feColorMatrix in="SourceAlpha" type="matrix" values="0 0 0 0 0 0 0 0 0 0 0 0 0 0 0 0 0 0 127 0" result="hardAlpha"/>
<feOffset dx="0.3" dy="0.3"/>
<feGaussianBlur stdDeviation="0.2"/>
<feComposite in2="hardAlpha" operator="arithmetic" k2="-1" k3="1"/>
<feColorMatrix type="matrix" values="0 0 0 0 1 0 0 0 0 0.498039 0 0 0 0 0.160784 0 0 0 1 0"/>
<feBlend mode="normal" in2="effect1_innerShadow_98_2477" result="effect2_innerShadow_98_2477"/>
</filter>
<filter id="filter8_ii_98_2477" x="10.66" y="11.0618" width="2.46328" height="2.46328" filterUnits="userSpaceOnUse" color-interpolation-filters="sRGB">
<feFlood flood-opacity="0" result="BackgroundImageFix"/>
<feBlend mode="normal" in="SourceGraphic" in2="BackgroundImageFix" result="shape"/>
<feColorMatrix in="SourceAlpha" type="matrix" values="0 0 0 0 0 0 0 0 0 0 0 0 0 0 0 0 0 0 127 0" result="hardAlpha"/>
<feOffset dx="-0.3" dy="-0.3"/>
<feGaussianBlur stdDeviation="0.25"/>
<feComposite in2="hardAlpha" operator="arithmetic" k2="-1" k3="1"/>
<feColorMatrix type="matrix" values="0 0 0 0 0.858824 0 0 0 0 0.752941 0 0 0 0 0.188235 0 0 0 1 0"/>
<feBlend mode="normal" in2="shape" result="effect1_innerShadow_98_2477"/>
<feColorMatrix in="SourceAlpha" type="matrix" values="0 0 0 0 0 0 0 0 0 0 0 0 0 0 0 0 0 0 127 0" result="hardAlpha"/>
<feOffset dx="0.3" dy="0.3"/>
<feGaussianBlur stdDeviation="0.2"/>
<feComposite in2="hardAlpha" operator="arithmetic" k2="-1" k3="1"/>
<feColorMatrix type="matrix" values="0 0 0 0 0.968627 0 0 0 0 0.858824 0 0 0 0 0.223529 0 0 0 1 0"/>
<feBlend mode="normal" in2="effect1_innerShadow_98_2477" result="effect2_innerShadow_98_2477"/>
</filter>
<filter id="filter9_f_98_2477" x="12.3242" y="2.14844" width="2.86133" height="14.2871" filterUnits="userSpaceOnUse" color-interpolation-filters="sRGB">
<feFlood flood-opacity="0" result="BackgroundImageFix"/>
<feBlend mode="normal" in="SourceGraphic" in2="BackgroundImageFix" result="shape"/>
<feGaussianBlur stdDeviation="0.5" result="effect1_foregroundBlur_98_2477"/>
</filter>
<filter id="filter10_i_98_2477" x="3.39258" y="1.14453" width="11.2148" height="2.42031" filterUnits="userSpaceOnUse" color-interpolation-filters="sRGB">
<feFlood flood-opacity="0" result="BackgroundImageFix"/>
<feBlend mode="normal" in="SourceGraphic" in2="BackgroundImageFix" result="shape"/>
<feColorMatrix in="SourceAlpha" type="matrix" values="0 0 0 0 0 0 0 0 0 0 0 0 0 0 0 0 0 0 127 0" result="hardAlpha"/>
<feOffset dy="0.1"/>
<feGaussianBlur stdDeviation="0.375"/>
<feComposite in2="hardAlpha" operator="arithmetic" k2="-1" k3="1"/>
<feColorMatrix type="matrix" values="0 0 0 0 0.380392 0 0 0 0 0.407843 0 0 0 0 0.666667 0 0 0 1 0"/>
<feBlend mode="normal" in2="shape" result="effect1_innerShadow_98_2477"/>
</filter>
<linearGradient id="paint0_linear_98_2477" x1="9" y1="4.18555" x2="9" y2="14.627" gradientUnits="userSpaceOnUse">
<stop stop-color="#62326D"/>
<stop offset="1" stop-color="#434486"/>
</linearGradient>
<linearGradient id="paint1_linear_98_2477" x1="3.39258" y1="12.2715" x2="4.69336" y2="12.3066" gradientUnits="userSpaceOnUse">
<stop offset="0.03125" stop-color="#412C4C"/>
<stop offset="1" stop-color="#412C4C" stop-opacity="0"/>
</linearGradient>
<linearGradient id="paint2_linear_98_2477" x1="5.26465" y1="6.16309" x2="5.85352" y2="6.16309" gradientUnits="userSpaceOnUse">
<stop offset="0.333333" stop-color="#FF945C"/>
<stop offset="1" stop-color="#FF945C" stop-opacity="0"/>
</linearGradient>
<linearGradient id="paint3_linear_98_2477" x1="5.26465" y1="12.7549" x2="5.85352" y2="12.7549" gradientUnits="userSpaceOnUse">
<stop offset="0.333333" stop-color="#FF945C"/>
<stop offset="1" stop-color="#FF945C" stop-opacity="0"/>
</linearGradient>
<linearGradient id="paint4_linear_98_2477" x1="11.0479" y1="9.45898" x2="11.6367" y2="9.45898" gradientUnits="userSpaceOnUse">
<stop offset="0.333333" stop-color="#FF945C"/>
<stop offset="1" stop-color="#FF945C" stop-opacity="0"/>
</linearGradient>
<linearGradient id="paint5_linear_98_2477" x1="13.7549" y1="3.14844" x2="13.7549" y2="15.4355" gradientUnits="userSpaceOnUse">
<stop stop-color="#674876"/>
<stop offset="1" stop-color="#555187"/>
</linearGradient>
<linearGradient id="paint6_linear_98_2477" x1="9" y1="1.14453" x2="9" y2="3.46484" gradientUnits="userSpaceOnUse">
<stop stop-color="#636AB6"/>
<stop offset="1" stop-color="#6C6EBE"/>
</linearGradient>
<linearGradient id="paint7_linear_98_2477" x1="9.65039" y1="3.55273" x2="9.65039" y2="3.16602" gradientUnits="userSpaceOnUse">
<stop stop-color="#6062B1"/>
<stop offset="1" stop-color="#6062B1" stop-opacity="0"/>
</linearGradient>
<linearGradient id="paint8_linear_98_2477" x1="3.39258" y1="3.46484" x2="5.20312" y2="3.46484" gradientUnits="userSpaceOnUse">
<stop offset="0.135922" stop-color="#484B86"/>
<stop offset="1" stop-color="#5E61AD" stop-opacity="0"/>
</linearGradient>
<linearGradient id="paint9_linear_98_2477" x1="14.6074" y1="3.46484" x2="12.9551" y2="3.46484" gradientUnits="userSpaceOnUse">
<stop offset="0.12766" stop-color="#7277C8"/>
<stop offset="1" stop-color="#7277C8" stop-opacity="0"/>
</linearGradient>
<radialGradient id="paint10_radial_98_2477" cx="0" cy="0" r="1" gradientUnits="userSpaceOnUse" gradientTransform="translate(14.6074 3.30664) rotate(-180) scale(0.36914 1.78418)">
<stop stop-color="#6C6FB4"/>
<stop offset="1" stop-color="#6C6FB4" stop-opacity="0"/>
</radialGradient>
<linearGradient id="paint11_linear_98_2477" x1="9" y1="14.5566" x2="9" y2="16.8506" gradientUnits="userSpaceOnUse">
<stop stop-color="#6B4390"/>
<stop offset="1" stop-color="#76509E"/>
</linearGradient>
<linearGradient id="paint12_linear_98_2477" x1="3.39258" y1="15.2598" x2="4.74609" y2="15.2598" gradientUnits="userSpaceOnUse">
<stop offset="0.164179" stop-color="#4F3D6C"/>
<stop offset="1" stop-color="#6E4693" stop-opacity="0"/>
</linearGradient>
<radialGradient id="paint13_radial_98_2477" cx="0" cy="0" r="1" gradientUnits="userSpaceOnUse" gradientTransform="translate(13.6758 14.3633) rotate(90) scale(1.74023 0.914063)">
<stop stop-color="#6B5094"/>
<stop offset="1" stop-color="#6B5094" stop-opacity="0"/>
</radialGradient>
<linearGradient id="paint14_linear_98_2477" x1="8.82422" y1="14.3984" x2="8.82422" y2="14.7324" gradientUnits="userSpaceOnUse">
<stop offset="0.157895" stop-color="#5E3D7F"/>
<stop offset="1" stop-color="#5E3D7F" stop-opacity="0"/>
</linearGradient>
</defs>
</svg>
