<svg width="24" height="16" viewBox="0 0 24 16" fill="none" xmlns="http://www.w3.org/2000/svg">
<g clip-path="url(#clip0_1_7043)">
<path d="M22.8753 2.49556C22.7448 2.0132 22.4902 1.57346 22.1369 1.22011C21.7835 0.866766 21.3438 0.612143 20.8614 0.4816C19.2186 0.0335651 12.9533 0.00233931 12.0879 0.000163038C12.0195 -8.89909e-06 11.9576 5.47171e-05 11.8892 0.000365572C11.0238 0.00430031 4.75811 0.0481418 3.11531 0.496178C2.63295 0.626729 2.19321 0.881365 1.83988 1.23473C1.48655 1.58809 1.23195 2.02786 1.10144 2.51022C0.567309 5.64782 0.360109 10.4288 1.11611 13.4409C1.24663 13.9232 1.50123 14.363 1.85457 14.7163C2.2079 15.0697 2.64763 15.3243 3.12998 15.4548C4.89584 15.9364 12.003 15.9364 12.003 15.9364C12.003 15.9364 12.003 15.9364 12.003 15.9364C12.0031 15.9364 19.1102 15.9364 20.8759 15.4548C21.3583 15.3243 21.798 15.0697 22.1514 14.7163C22.5047 14.363 22.7594 13.9233 22.8899 13.4409C23.4533 10.2988 23.6269 5.5208 22.8753 2.49556Z" fill="#F61C0D"/>
<path d="M22.8753 2.49556C22.7448 2.0132 22.4902 1.57346 22.1369 1.22011C21.7835 0.866766 21.3438 0.612143 20.8614 0.4816C19.2186 0.0335651 12.9533 0.00233931 12.0879 0.000163038C12.0195 -8.89909e-06 11.9576 5.47171e-05 11.8892 0.000365572C11.0238 0.00430031 4.75811 0.0481418 3.11531 0.496178C2.63295 0.626729 2.19321 0.881365 1.83988 1.23473C1.48655 1.58809 1.23195 2.02786 1.10144 2.51022C0.567309 5.64782 0.360109 10.4288 1.11611 13.4409C1.24663 13.9232 1.50123 14.363 1.85457 14.7163C2.2079 15.0697 2.64763 15.3243 3.12998 15.4548C4.89584 15.9364 12.003 15.9364 12.003 15.9364C12.003 15.9364 12.003 15.9364 12.003 15.9364C12.0031 15.9364 19.1102 15.9364 20.8759 15.4548C21.3583 15.3243 21.798 15.0697 22.1514 14.7163C22.5047 14.363 22.7594 13.9233 22.8899 13.4409C23.4533 10.2988 23.6269 5.5208 22.8753 2.49556Z" fill="url(#paint0_radial_1_7043)" fill-opacity="0.7"/>
<path d="M9.72632 11.3831L15.6221 7.96816L9.72632 4.55322V11.3831Z" fill="white"/>
</g>
<defs>
<radialGradient id="paint0_radial_1_7043" cx="0" cy="0" r="1" gradientUnits="userSpaceOnUse" gradientTransform="translate(11.9999 -1.64064e-06) rotate(90) scale(15.9364 22.7552)">
<stop stop-color="white"/>
<stop offset="0.730539" stop-color="white" stop-opacity="0"/>
</radialGradient>
<clipPath id="clip0_1_7043">
<rect width="22.7556" height="16" fill="white" transform="translate(0.622314)"/>
</clipPath>
</defs>
</svg>
